<svg width="24" height="25" viewBox="0 0 24 25" fill="none" xmlns="http://www.w3.org/2000/svg">
<path fill-rule="evenodd" clip-rule="evenodd" d="M10.4877 4.05771C11.4723 3.07314 12.8076 2.52002 14.2 2.52002H16.9C17.3142 2.52002 17.65 2.85581 17.65 3.27002V6.87002C17.65 7.28423 17.3142 7.62002 16.9 7.62002H14.2C14.1602 7.62002 14.1221 7.63582 14.0939 7.66395C14.0658 7.69208 14.05 7.73024 14.05 7.77002V9.72002H16.9C17.131 9.72002 17.349 9.82642 17.4912 10.0085C17.6333 10.1905 17.6836 10.4279 17.6276 10.6519L16.7276 14.2519C16.6441 14.5858 16.3442 14.82 16 14.82H14.05V21.27C14.05 21.6842 13.7142 22.02 13.3 22.02H9.7C9.28579 22.02 8.95 21.6842 8.95 21.27V14.82H7C6.58579 14.82 6.25 14.4842 6.25 14.07V10.47C6.25 10.0558 6.58579 9.72002 7 9.72002H8.95V7.77002C8.95 6.37763 9.50312 5.04227 10.4877 4.05771ZM14.2 4.02002C13.2054 4.02002 12.2516 4.41511 11.5483 5.11837C10.8451 5.82163 10.45 6.77546 10.45 7.77002V10.47C10.45 10.8842 10.1142 11.22 9.7 11.22H7.75V13.32H9.7C10.1142 13.32 10.45 13.6558 10.45 14.07V20.52H12.55V14.07C12.55 13.6558 12.8858 13.32 13.3 13.32H15.4144L15.9394 11.22H13.3C12.8858 11.22 12.55 10.8842 12.55 10.47V7.77002C12.55 7.33241 12.7238 6.91273 13.0333 6.60329C13.3427 6.29386 13.7624 6.12002 14.2 6.12002H16.15V4.02002H14.2Z" fill="#C0304F"/>
</svg>
