<svg width="41" height="43" viewBox="0 0 41 43" fill="none" xmlns="http://www.w3.org/2000/svg">
<path d="M19.7837 0.206235C19.5444 0.445601 19.4701 0.775762 19.4701 1.62593V2.22847H18.6529C17.8936 2.22847 17.8275 2.24498 17.6294 2.44307C17.3488 2.72371 17.2828 3.04562 17.4396 3.41705C17.6047 3.8215 17.9596 3.96182 18.8098 3.96182H19.4701V5.52183V7.07358L14.0142 11.0685C11.018 13.2558 8.50049 15.146 8.41795 15.2616C8.2116 15.5587 8.07953 15.9797 8.07953 16.3429C8.07953 16.739 8.3189 17.2013 9.04525 18.1752C9.78811 19.174 10.0688 19.3473 10.8859 19.2978C11.3151 19.273 11.5132 19.2153 11.7856 19.0419L12.124 18.8191V21.1549V23.4991L11.9424 23.5816C11.8351 23.6312 9.30113 24.795 6.30492 26.1651C3.30871 27.5353 0.733451 28.7486 0.576625 28.8642C0.428052 28.9798 0.229956 29.2356 0.147416 29.4337C-0.00941086 29.7721 -0.00941086 30.0363 0.00709719 35.5169L0.0318593 41.2535L0.287734 41.5671C0.419798 41.7405 0.642657 41.9551 0.766467 42.0459L0.989326 42.2192L20.1552 42.244C30.6956 42.2522 39.4448 42.244 39.5934 42.2192C39.9236 42.1614 40.5013 41.6579 40.6582 41.2948C40.7407 41.0802 40.7655 39.9328 40.7655 35.3931C40.7655 30.0693 40.7572 29.7391 40.6086 29.4172C40.5261 29.2274 40.328 28.9798 40.1794 28.8642C40.0226 28.7486 37.3648 27.494 34.2695 26.0743L28.6321 23.4991V21.1549V18.8191L28.9705 19.0419C29.2428 19.2153 29.4409 19.273 29.8702 19.2978C30.6873 19.3473 30.9679 19.174 31.7108 18.1752C32.4372 17.2013 32.6765 16.739 32.6765 16.3429C32.6765 15.9797 32.5445 15.5587 32.3381 15.2616C32.2556 15.146 29.7381 13.2558 26.7419 11.0603L21.286 7.07358V5.52183V3.96182H21.9463C22.7965 3.96182 23.1514 3.8215 23.3165 3.41705C23.4733 3.04562 23.4073 2.72371 23.1266 2.44307C22.9285 2.24498 22.8625 2.22847 22.1031 2.22847H21.286V1.62593C21.286 0.371315 21.0796 -0.000116036 20.378 -0.000116036C20.0726 -0.000116036 19.9406 0.0411541 19.7837 0.206235ZM25.5285 12.3562C28.3019 14.3784 30.646 16.1035 30.7286 16.186C30.8854 16.3263 30.8771 16.3429 30.4479 16.9371C30.2003 17.2673 29.994 17.5479 29.9857 17.5644C29.9775 17.581 27.9717 16.1282 25.5285 14.3454C23.0771 12.5543 20.9888 11.0273 20.8733 10.953C20.6174 10.7714 20.1387 10.7714 19.8828 10.953C19.6929 11.085 12.7018 16.186 11.4059 17.1435L10.8034 17.581L10.3411 16.9536C9.97796 16.4749 9.89542 16.3098 9.9697 16.2355C10.2173 15.9879 20.2707 8.67486 20.3698 8.66661C20.4276 8.66661 22.7469 10.3257 25.5285 12.3562ZM23.7127 15.1955L26.8987 17.5314V23.3423V29.1531L27.1381 29.3925C27.4765 29.7309 27.947 29.7309 28.3184 29.3925L28.5908 29.1531L28.6321 27.3042L28.6733 25.447L33.8321 27.8159L38.9908 30.1766L39.0156 35.3519L39.0321 40.5271H33.8321H28.6321V38.3811C28.6321 35.9379 28.5908 35.7398 28.1038 35.5335C27.7406 35.3766 27.3774 35.4509 27.1051 35.7233L26.8987 35.9296V38.2243V40.5271H25.38H23.853L23.8282 37.4566C23.8034 34.4934 23.7952 34.3614 23.6136 33.9239C23.2339 32.9912 22.5406 32.2979 21.6161 31.9264C20.9723 31.6706 19.7837 31.6706 19.1399 31.9264C18.2155 32.2979 17.5221 32.9912 17.1424 33.9239C16.9609 34.3614 16.9526 34.4934 16.9278 37.4566L16.9031 40.5271H15.3761H13.8573V29.0293V17.5314L17.0929 15.1625C18.8758 13.8584 20.378 12.8101 20.4276 12.8266C20.4771 12.8431 21.9545 13.9162 23.7127 15.1955ZM12.124 32.9747V40.5271H6.92397H1.72393L1.74044 35.3519L1.7652 30.1766L6.92397 27.8077C9.76335 26.5036 12.091 25.4305 12.1075 25.4305C12.1157 25.4223 12.124 28.8229 12.124 32.9747ZM21.2364 33.7093C21.4758 33.8496 21.6904 34.0725 21.839 34.3201L22.0701 34.7081L22.0949 37.6135L22.1196 40.5271H20.378H18.6364L18.6612 37.6135L18.686 34.6915L18.9336 34.2954C19.1152 33.9982 19.305 33.8249 19.6352 33.6515C20.1964 33.3626 20.6669 33.3792 21.2364 33.7093Z" fill="#C0304F"/>
<path d="M19.5906 19.3391C18.922 19.5125 18.402 19.8014 17.9398 20.2718C16.5944 21.609 16.5944 23.7963 17.9315 25.1417C19.9455 27.1474 23.3792 26.0001 23.7836 23.169C24.0147 21.5677 22.983 19.8839 21.5055 19.4382C20.9112 19.2566 20.0776 19.2153 19.5906 19.3391ZM21.1011 21.1633C21.6954 21.4687 22.0585 22.0464 22.0585 22.7068C22.0668 23.3588 21.7366 23.8788 21.1176 24.209C20.5563 24.4979 20.0858 24.4814 19.5163 24.1512C18.2369 23.4001 18.4928 21.5017 19.929 21.0477C20.2261 20.9487 20.8039 21.0064 21.1011 21.1633Z" fill="#C0304F"/>
<path d="M32.9655 31.0928C32.2144 31.3652 31.6696 31.9099 31.3972 32.6775C31.2982 32.9664 31.2734 33.4947 31.2734 35.5004V37.9684L31.5128 38.2325L31.7522 38.5049H33.8322H35.9122L36.1516 38.2325L36.3992 37.9601L36.3744 35.3849C36.3497 32.8509 36.3497 32.8014 36.1516 32.4052C35.8957 31.8852 35.4582 31.4477 34.9465 31.2001C34.41 30.9442 33.5268 30.8947 32.9655 31.0928ZM34.3769 32.9664L34.6576 33.2471V35.0299V36.8128H33.8322H33.0068V35.0299V33.2471L33.2874 32.9664C33.4938 32.7601 33.6423 32.6858 33.8322 32.6858C34.022 32.6858 34.1789 32.7601 34.3769 32.9664Z" fill="#C0304F"/>
<path d="M27.1378 31.9347C26.948 32.1246 26.8984 32.2484 26.8984 32.5208C26.8984 32.7106 26.9397 32.9335 26.981 33.0243C27.0883 33.2059 27.4845 33.4287 27.7238 33.4287C28.2356 33.4287 28.6978 32.8509 28.5905 32.3474C28.4502 31.7201 27.6 31.4808 27.1378 31.9347Z" fill="#C0304F"/>
<path d="M6.13355 31.068C5.34942 31.3239 4.67259 32.0337 4.45798 32.8096C4.4002 33.0077 4.36719 34.0807 4.36719 35.5499V37.9684L4.60655 38.2325L4.84592 38.5049H6.92593H9.00595L9.24532 38.2325L9.48468 37.9684V35.4922C9.48468 33.1975 9.47643 32.9912 9.31135 32.5702C9.105 32.009 8.55198 31.4147 8.01547 31.1836C7.53673 30.969 6.60403 30.9112 6.13355 31.068ZM7.4707 32.9664L7.75134 33.2471V35.0299V36.8128H6.92593H6.10053V35.0299V33.2471L6.38117 32.9664C6.58752 32.7601 6.73609 32.6858 6.92593 32.6858C7.11578 32.6858 7.2726 32.7601 7.4707 32.9664Z" fill="#C0304F"/>
</svg>
