<svg width="43" height="28" viewBox="0 0 43 28" fill="none" xmlns="http://www.w3.org/2000/svg">
<path d="M9.86166 0.551455C9.39943 0.609233 8.87943 0.700028 8.69784 0.749552C8.33466 0.8486 7.8972 1.24479 7.76514 1.60797C7.70736 1.7648 7.67434 3.49814 7.67434 6.77499V11.7109L7.0718 11.8925C6.74164 11.9915 6.2464 12.1731 5.97401 12.3052C5.31369 12.6188 4.47178 13.4112 4.13337 14.0385C3.99305 14.3109 3.22542 16.102 2.43304 18.017C1.07938 21.2691 0.955566 21.5332 0.534611 22.0284C0.28699 22.3256 0.0558778 22.6557 0.0311157 22.763C-0.0514245 23.1014 0.0393697 23.8113 0.196196 24.0589C0.328261 24.257 4.94226 27.6494 5.42099 27.9053C5.73465 28.0621 6.44449 28.0208 6.77465 27.8062C6.93973 27.7072 7.51751 27.1459 8.07053 26.5599C8.92895 25.6437 9.16007 25.4456 9.76261 25.1154C11.4547 24.1992 12.4617 22.9941 12.9322 21.3103L13.0725 20.7986L13.6915 20.8564C15.2103 20.9884 17.0261 21.4837 18.19 22.0697C18.8503 22.3999 19.6427 22.9199 20.2947 23.4481C21.0376 24.0507 21.2357 24.0342 22.1106 23.3408C22.9113 22.7053 23.5386 22.3173 24.3722 21.9376C25.536 21.4011 27.2034 20.9719 28.557 20.8564L29.1761 20.7986L29.4072 21.5332C29.9107 23.1592 30.8599 24.2488 32.5272 25.1402C33.0967 25.4456 33.3361 25.6519 34.1863 26.5599C34.7393 27.1459 35.3171 27.7072 35.4821 27.8062C35.8123 28.0208 36.5222 28.0621 36.8358 27.9053C37.3145 27.6494 41.9285 24.257 42.0606 24.0589C42.2174 23.8113 42.3082 23.1014 42.2257 22.763C42.2009 22.6557 41.9698 22.3256 41.7222 22.0284C41.3012 21.5332 41.1774 21.2691 39.8238 18.017C39.0314 16.102 38.2637 14.3109 38.1234 14.0385C37.785 13.4112 36.9431 12.6188 36.2828 12.3052C36.0104 12.1731 35.5152 11.9915 35.185 11.8925L34.5825 11.7109V11.1414C34.5825 10.6131 34.5577 10.5471 34.3431 10.3242C34.1532 10.1344 34.0294 10.0849 33.7571 10.0849C33.3278 10.0849 33.1297 10.1922 32.9729 10.4976C32.8656 10.6956 32.8491 11.2157 32.8491 13.6754C32.8491 15.2849 32.8326 16.6055 32.8161 16.6055C32.7913 16.6055 31.9824 16.003 31.0167 15.2684C28.9202 13.6836 28.8789 13.6506 28.2434 13.5433C26.6668 13.2627 25.2967 14.5173 25.4453 16.1103C25.503 16.8036 25.7589 17.2081 26.7742 18.2481L27.6903 19.1973L26.8815 19.3376C25.4618 19.5935 23.9183 20.13 22.7627 20.7821C22.4078 20.9802 22.1024 21.1452 22.0776 21.1452C22.0528 21.1452 22.0363 17.4557 22.0363 12.9407V4.73624L22.4738 4.41434C23.9843 3.27528 25.8249 2.57369 28.0948 2.27655C28.8624 2.1775 29.4485 2.15274 30.6205 2.19401C31.4624 2.21877 32.2961 2.26829 32.4777 2.30956L32.8078 2.36734L32.8491 3.06068C32.8986 3.70449 32.9151 3.76227 33.1628 3.98513C33.4682 4.25751 33.7983 4.29053 34.1698 4.10069C34.5329 3.91084 34.5825 3.74576 34.5825 2.73877C34.5825 1.01368 34.2606 0.741298 31.9577 0.501931C30.7443 0.378121 28.1196 0.452407 27.1126 0.633995C25.0821 1.00543 23.3075 1.69876 21.8465 2.70576C21.4916 2.95338 21.1697 3.15147 21.1284 3.15147C21.0871 3.15147 20.7652 2.95338 20.4103 2.70576C18.7595 1.57495 16.7868 0.856854 14.4591 0.551455C13.3283 0.402883 11.0255 0.402883 9.86166 0.551455ZM14.3518 2.29305C16.5227 2.60671 18.3385 3.31655 19.7912 4.41434L20.2205 4.73624V12.9407C20.2205 17.4557 20.2039 21.1452 20.1792 21.1452C20.1544 21.1452 19.8408 20.9802 19.4941 20.7821C18.3633 20.1383 16.63 19.5357 15.2268 19.3046L14.5747 19.1973L15.4826 18.2481C15.9861 17.7281 16.4814 17.142 16.5887 16.9357C16.8446 16.4404 16.8941 15.7636 16.7125 15.1528C16.5309 14.509 15.8458 13.8074 15.2268 13.6258C14.6655 13.469 13.8896 13.4938 13.4439 13.7001C13.2458 13.7909 12.2718 14.4842 11.2813 15.2354C10.2909 15.9865 9.46546 16.6055 9.4407 16.6055C9.42419 16.6055 9.40769 13.4112 9.40769 9.50707C9.40769 3.90259 9.43245 2.3921 9.51499 2.36734C10.0928 2.15274 13.089 2.10321 14.3518 2.29305ZM7.67434 16.1763V18.8011L7.90545 19.024C8.22736 19.3294 8.59054 19.3871 8.93721 19.1808C9.09403 19.0982 10.2991 18.1986 11.6198 17.1916C12.9487 16.1846 14.1207 15.3262 14.2363 15.2849C14.4922 15.1858 14.7976 15.2931 14.9709 15.549C15.2433 15.937 15.1607 16.0773 13.9722 17.2989C11.2236 20.1135 11.4794 19.8163 11.3474 20.4354C11.0337 21.9459 10.2166 22.9529 8.68959 23.7122C8.12831 23.9846 7.90545 24.1745 7.01402 25.1072L5.98227 26.1885L4.04257 24.777C2.9778 24.0011 2.05335 23.3326 1.98732 23.2995C1.88827 23.2418 1.92954 23.1592 2.16891 22.8703C2.39177 22.598 2.86225 21.5579 4.05083 18.6855C5.75941 14.575 5.89147 14.3274 6.62608 13.9477C6.95624 13.7827 7.49275 13.568 7.61656 13.5598C7.64958 13.5515 7.67434 14.7319 7.67434 16.1763ZM35.4326 13.8652C36.3488 14.2696 36.4231 14.3935 38.206 18.6855C39.3946 21.5579 39.865 22.598 40.0879 22.8703C40.3273 23.1592 40.3685 23.2418 40.2695 23.2995C40.2034 23.3326 39.279 24.0011 38.2142 24.777L36.2745 26.1885L35.2428 25.1072C34.3596 24.1827 34.1202 23.9846 33.592 23.7205C32.0485 22.9529 31.2231 21.9459 30.9094 20.4354C30.7774 19.8163 31.0332 20.1135 28.2846 17.2989C27.0961 16.0773 27.0135 15.937 27.2859 15.549C27.4592 15.2931 27.7646 15.1858 28.0205 15.2849C28.1361 15.3262 29.3164 16.1928 30.637 17.1998C31.9659 18.2068 33.1958 19.1065 33.3609 19.189C33.7405 19.3789 34.0707 19.3211 34.3679 19.024L34.5825 18.8094V16.1763V13.5433L34.7723 13.5928C34.8713 13.6258 35.1685 13.7496 35.4326 13.8652Z" fill="#C0304F"/>
<path d="M14.7187 4.52981C14.6197 4.54632 14.4463 4.66188 14.3308 4.77743C14.1409 4.96728 14.1162 5.05807 14.1162 5.55331V6.12284H13.4889C12.9111 6.12284 12.845 6.13935 12.6222 6.36221C12.4323 6.55205 12.3828 6.67586 12.3828 6.94824C12.3828 7.60856 12.7047 7.85618 13.5796 7.85618H14.1162V9.55651C14.1162 10.5635 14.1492 11.3146 14.1987 11.4137C14.306 11.5953 14.7022 11.8181 14.9416 11.8181C15.247 11.8181 15.6101 11.5705 15.7339 11.2816C15.8165 11.067 15.8495 10.5965 15.8495 9.42445V7.85618H16.3447C16.972 7.85618 17.3105 7.6911 17.4673 7.30316C17.6324 6.92348 17.5498 6.59332 17.2362 6.32919C17.0298 6.15586 16.9143 6.12284 16.419 6.12284H15.8495V5.71014C15.8495 4.85172 15.4203 4.406 14.7187 4.52981Z" fill="#C0304F"/>
<path d="M27.94 5.71838C26.6523 5.85045 24.5723 6.40347 24.0523 6.74188C23.8377 6.8822 23.6891 7.31966 23.7469 7.64157C23.7717 7.75713 23.8872 7.94697 23.9945 8.06253C24.2834 8.34316 24.6796 8.33491 25.5463 8.02126C26.6358 7.64157 27.8574 7.43522 29.3844 7.3857C30.7298 7.33617 30.7463 7.33617 30.9692 7.10506C31.1508 6.93172 31.2003 6.79966 31.2003 6.53553C31.2003 5.79267 30.8867 5.61934 29.533 5.63584C29.0212 5.6441 28.3031 5.67711 27.94 5.71838Z" fill="#C0304F"/>
<path d="M33.1618 6.52726C32.4437 7.17107 33.1948 8.31013 34.0863 7.9387C34.4082 7.80663 34.5815 7.51774 34.5815 7.11329C34.5815 6.36218 33.7396 6.01551 33.1618 6.52726Z" fill="#C0304F"/>
<path d="M28.1058 9.0202C27.0575 9.11925 26.1909 9.30084 25.1178 9.63925C24.1604 9.94465 23.7807 10.1923 23.7559 10.5307C23.7146 11.125 23.888 11.4469 24.3172 11.5624C24.5731 11.6367 24.7381 11.6037 25.4562 11.3643C26.8842 10.8939 28.3039 10.671 29.9712 10.6628C30.7223 10.6628 30.7636 10.6545 30.9782 10.4316C31.4487 9.94465 31.1845 9.11099 30.5325 8.97893C30.1941 8.9129 29.0467 8.92941 28.1058 9.0202Z" fill="#C0304F"/>
</svg>
