<svg width="178" height="178" viewBox="0 0 178 178" fill="none" xmlns="http://www.w3.org/2000/svg">
<circle cx="89" cy="89" r="89" fill="#232526"/>
<circle cx="88.5" cy="88.5" r="78.3" stroke="#FCFCFC" stroke-width="0.4"/>
<path d="M43.052 102.752C44.976 102.752 46.6573 103.124 48.096 103.87C49.552 104.598 50.67 105.655 51.45 107.042C52.2473 108.411 52.646 110.014 52.646 111.852C52.646 113.689 52.2473 115.284 51.45 116.636C50.67 117.988 49.552 119.028 48.096 119.756C46.6573 120.466 44.976 120.822 43.052 120.822H37.15V102.752H43.052ZM43.052 118.404C45.1667 118.404 46.7873 117.832 47.914 116.688C49.0407 115.544 49.604 113.932 49.604 111.852C49.604 109.754 49.0407 108.116 47.914 106.938C46.7873 105.759 45.1667 105.17 43.052 105.17H40.114V118.404H43.052ZM64.3456 121.004C62.6643 121.004 61.1129 120.614 59.6916 119.834C58.2876 119.036 57.1696 117.936 56.3376 116.532C55.5229 115.11 55.1156 113.516 55.1156 111.748C55.1156 109.98 55.5229 108.394 56.3376 106.99C57.1696 105.586 58.2876 104.494 59.6916 103.714C61.1129 102.916 62.6643 102.518 64.3456 102.518C66.0443 102.518 67.5956 102.916 68.9996 103.714C70.4209 104.494 71.5389 105.586 72.3536 106.99C73.1683 108.394 73.5756 109.98 73.5756 111.748C73.5756 113.516 73.1683 115.11 72.3536 116.532C71.5389 117.936 70.4209 119.036 68.9996 119.834C67.5956 120.614 66.0443 121.004 64.3456 121.004ZM64.3456 118.43C65.5416 118.43 66.6076 118.161 67.5436 117.624C68.4796 117.069 69.2076 116.289 69.7276 115.284C70.2649 114.261 70.5336 113.082 70.5336 111.748C70.5336 110.413 70.2649 109.243 69.7276 108.238C69.2076 107.232 68.4796 106.461 67.5436 105.924C66.6076 105.386 65.5416 105.118 64.3456 105.118C63.1496 105.118 62.0836 105.386 61.1476 105.924C60.2116 106.461 59.4749 107.232 58.9376 108.238C58.4176 109.243 58.1576 110.413 58.1576 111.748C58.1576 113.082 58.4176 114.261 58.9376 115.284C59.4749 116.289 60.2116 117.069 61.1476 117.624C62.0836 118.161 63.1496 118.43 64.3456 118.43ZM91.8583 120.822H88.8943L79.9763 107.328V120.822H77.0123V102.726H79.9763L88.8943 116.194V102.726H91.8583V120.822ZM107.165 117.13H99.5985L98.2985 120.822H95.2045L101.679 102.726H105.111L111.585 120.822H108.465L107.165 117.13ZM106.333 114.712L103.395 106.314L100.431 114.712H106.333ZM126.593 102.752V105.17H121.783V120.822H118.819V105.17H113.983V102.752H126.593ZM133.079 105.144V110.448H139.319V112.866H133.079V118.404H140.099V120.822H130.115V102.726H140.099V105.144H133.079Z" fill="#FCFCFC"/>
<path d="M84.4425 48.1691C82.7933 48.6121 81.4395 49.7116 80.6273 51.2787C79.9545 52.5832 79.9299 53.2232 80.5534 53.5268C81.1688 53.8304 81.5626 53.5678 81.9318 52.6243C82.6292 50.8274 84.1799 49.7198 86.0014 49.7198C86.707 49.7198 87.1337 49.8182 87.7736 50.1464C88.2987 50.409 89.2095 51.2212 89.5705 51.7463C89.8823 52.1976 90.3417 53.1248 90.4648 53.5596C90.6125 54.0519 90.8833 54.2816 91.3345 54.2816C91.8104 54.2816 92.0155 54.0683 92.3519 53.215C93.238 50.9669 94.7969 49.7198 96.7087 49.7198C98.3906 49.7198 99.7608 50.6223 100.565 52.2304C101.09 53.2971 101.238 54.3965 101.016 55.5698C100.581 57.8179 99.2029 59.4506 93.796 64.0945L91.433 66.1375L90.6781 65.4976C90.2679 65.1448 89.3079 64.3243 88.5367 63.6761C85.6978 61.2803 84.0569 59.746 83.2692 58.7368C82.8344 58.1871 82.498 58.0312 82.0549 58.1789C81.4313 58.384 81.3247 59.0568 81.8252 59.7132C82.8097 61.0096 84.0897 62.2157 88.2823 65.7519C90.9489 68.0082 91.072 68.1067 91.4002 68.1067C91.5889 68.1067 91.835 68.0411 91.9417 67.9672C92.3273 67.7047 97.3158 63.3725 98.2676 62.4782C100.245 60.6157 101.344 59.2783 102.034 57.8917C102.944 56.0621 103.084 54.1175 102.452 52.2222C101.779 50.2203 100.155 48.6613 98.2101 48.1691C97.3322 47.9393 95.9702 47.9475 95.1579 48.1691C94.5098 48.3496 93.796 48.686 93.3365 49.0224C92.8196 49.408 92.0155 50.2531 91.6791 50.77L91.3427 51.2787L90.9325 50.6879C90.0053 49.367 88.7992 48.4973 87.388 48.128C86.6988 47.9557 85.1727 47.9721 84.4425 48.1691Z" fill="#C0304F"/>
<path d="M80.2678 55.4549C79.8247 55.9144 80.0626 56.7677 80.6616 56.8825C81.2441 56.9974 81.6872 56.6364 81.6872 56.0539C81.6872 55.5205 81.3918 55.2252 80.8585 55.2252C80.5549 55.2252 80.4483 55.2662 80.2678 55.4549Z" fill="#C0304F"/>
<path d="M67.2215 66.4493L67 66.6791V74.4408V82.1943L67.2051 82.3994C67.32 82.5143 67.5251 82.6292 67.6646 82.662C68.083 82.744 72.6859 82.7194 73.1454 82.6292C73.3833 82.5881 73.7115 82.4815 73.8756 82.4076C74.2448 82.2353 74.7945 81.6938 74.9586 81.3492L75.0817 81.0949L75.7791 81.2343C76.1647 81.3164 76.6816 81.4559 76.936 81.5543C77.1903 81.6528 78.5687 82.4322 80.0046 83.2855C81.4322 84.1388 82.9091 84.9593 83.2865 85.1234C85.5346 86.0588 88.1191 86.19 90.5067 85.4844C90.9498 85.3613 105.415 79.0519 107.244 78.1904C107.835 77.9114 108.393 77.3535 108.697 76.7381C108.926 76.2704 108.976 76.0899 108.992 75.4828C109.017 74.9987 108.984 74.6213 108.894 74.3177C108.492 72.9393 107.171 72.0532 105.661 72.1434C105.119 72.1845 104.479 72.3732 101.066 73.5547C98.8838 74.3013 97.0869 74.9167 97.0705 74.9167C97.0623 74.9167 97.0295 74.5967 97.0131 74.1946C96.9803 73.6285 96.9311 73.3824 96.7423 72.9885C96.447 72.365 95.8152 71.7332 95.1834 71.4214L94.6911 71.1835L91.4503 71.1425L88.2094 71.1014L85.7643 69.7148C84.427 68.96 83.0568 68.238 82.7286 68.1231L82.1378 67.9098L78.6344 67.877L75.1309 67.8523L74.8848 67.4093C74.614 66.9334 74.2941 66.6462 73.7279 66.3919C73.3751 66.236 73.1946 66.2196 70.3968 66.2196H67.4431L67.2215 66.4493ZM73.252 68.1477C73.3669 68.2626 73.4818 68.4677 73.5146 68.6072C73.5392 68.7549 73.5638 71.3968 73.5556 74.4982C73.5556 78.6334 73.531 80.2005 73.4572 80.4139C73.2767 80.9472 73.0715 80.9882 70.7168 80.9882H68.641V74.4654V67.9426H70.848H73.0469L73.252 68.1477ZM81.8917 69.6984C82.4004 69.8297 82.5891 69.9281 85.0095 71.2901C86.0925 71.8973 87.1838 72.4962 87.4299 72.6111L87.8812 72.8244L91.081 72.8655C94.2563 72.9065 94.2809 72.9065 94.5927 73.0952C95.0357 73.3742 95.3065 73.8829 95.3065 74.4326C95.3065 75.1874 94.8388 75.77 94.084 75.9833C93.9035 76.0325 92.0902 76.0653 89.4155 76.0653H85.0341L84.7962 76.3033C84.4598 76.6397 84.4598 77.1073 84.7962 77.4765L85.0341 77.7473H89.7437H94.445L94.8963 77.5586C96.0449 77.0745 105.595 73.85 105.874 73.85C106.334 73.85 106.883 74.1618 107.105 74.5474C107.261 74.8182 107.285 74.9741 107.261 75.3843C107.212 76.3607 107.671 76.1064 99.8109 79.5688C90.1949 83.8106 90.3098 83.7614 89.6206 83.9337C87.7335 84.4178 85.7397 84.2783 83.9757 83.5235C83.6475 83.384 82.1871 82.5553 80.7348 81.6856C77.9124 80.0036 77.2806 79.7165 75.8612 79.4867L75.2458 79.3801L75.2212 74.4818L75.2048 69.5835H78.339C80.702 69.5835 81.5799 69.6164 81.8917 69.6984Z" fill="#C0304F"/>
<path d="M70.5041 69.7313C70.061 70.1907 70.299 71.044 70.8979 71.1589C71.4805 71.2738 71.9235 70.9128 71.9235 70.3302C71.9235 69.7969 71.6282 69.5015 71.0948 69.5015C70.7913 69.5015 70.6846 69.5426 70.5041 69.7313Z" fill="#C0304F"/>
</svg>
