<svg width="24" height="24" viewBox="0 0 24 24" fill="none" xmlns="http://www.w3.org/2000/svg">
<path fill-rule="evenodd" clip-rule="evenodd" d="M16.5134 21.4998H8.16555C5.09919 21.4998 2.74679 20.3922 3.41498 15.9346L4.19301 9.89339C4.60491 7.66913 6.02367 6.81787 7.26852 6.81787H17.447C18.7102 6.81787 20.0466 7.7332 20.5225 9.89339L21.3006 15.9346C21.8681 19.8888 19.5797 21.4998 16.5134 21.4998Z" stroke="#232526" stroke-width="1.5" stroke-linecap="round" stroke-linejoin="round"/>
<path d="M16.6512 6.59824C16.6512 4.21216 14.7169 2.27787 12.3309 2.27787V2.27787C11.1819 2.273 10.0782 2.72603 9.26406 3.53679C8.44987 4.34754 7.99218 5.44923 7.99219 6.59824H7.99219" stroke="#232526" stroke-width="1.5" stroke-linecap="round" stroke-linejoin="round"/>
<path d="M15.297 11.1017H15.2512" stroke="#232526" stroke-width="1.5" stroke-linecap="round" stroke-linejoin="round"/>
<path d="M9.46492 11.1017H9.41916" stroke="#232526" stroke-width="1.5" stroke-linecap="round" stroke-linejoin="round"/>
</svg>
