<svg width="16" height="15" viewBox="0 0 16 15" fill="none" xmlns="http://www.w3.org/2000/svg">
<path fill-rule="evenodd" clip-rule="evenodd" d="M0.861328 7.7861C0.861328 3.8439 4.05752 0.647705 7.99972 0.647705C9.88128 0.647705 11.5875 1.38165 12.8607 2.56829C12.9697 2.66986 13.0328 2.81136 13.0354 2.96033C13.038 3.10929 12.98 3.25292 12.8746 3.35827L11.0109 5.22205C10.8052 5.42769 10.4749 5.43733 10.2576 5.24404C9.65495 4.70791 8.86635 4.38163 7.99972 4.38163C6.11962 4.38163 4.59526 5.906 4.59526 7.7861C4.59526 9.66619 6.11962 11.1906 7.99972 11.1906C9.1886 11.1906 10.2343 10.5794 10.8425 9.65306H7.99972C7.69646 9.65306 7.45061 9.40722 7.45061 9.10395V6.46824C7.45061 6.16498 7.69646 5.91913 7.99972 5.91913H14.4608C14.723 5.91913 14.9485 6.1044 14.9995 6.36153C15.0892 6.81436 15.1381 7.30872 15.1381 7.7861C15.1381 11.7283 11.9419 14.9245 7.99972 14.9245C4.05752 14.9245 0.861328 11.7283 0.861328 7.7861ZM7.99972 1.74592C4.66405 1.74592 1.95954 4.45043 1.95954 7.7861C1.95954 11.1218 4.66405 13.8263 7.99972 13.8263C11.3354 13.8263 14.0399 11.1218 14.0399 7.7861C14.0399 7.53166 14.0234 7.27071 13.9925 7.01735H8.54883V8.55485H11.7237C11.902 8.55485 12.0692 8.64142 12.1721 8.78703C12.275 8.93264 12.3008 9.11916 12.2413 9.28724C11.6232 11.0328 9.96148 12.2888 7.99972 12.2888C5.5131 12.2888 3.49704 10.2727 3.49704 7.7861C3.49704 5.29947 5.5131 3.28342 7.99972 3.28342C8.96122 3.28342 9.85002 3.5874 10.5795 4.10027L11.6772 3.0026C10.6578 2.21568 9.38475 1.74592 7.99972 1.74592Z" fill="#262323"/>
</svg>
