<svg width="15" height="15" viewBox="0 0 15 15" fill="none" xmlns="http://www.w3.org/2000/svg">
<path d="M10.7146 4.12502C10.7146 3.72067 11.0424 3.39288 11.4467 3.39288C11.8511 3.39288 12.1789 3.72067 12.1789 4.12502C12.1789 4.52938 11.8511 4.85717 11.4467 4.85717C11.0424 4.85717 10.7146 4.52938 10.7146 4.12502Z" fill="#262323"/>
<path fill-rule="evenodd" clip-rule="evenodd" d="M7.786 4.30806C5.86533 4.30806 4.30832 5.86507 4.30832 7.78574C4.30832 9.70641 5.86533 11.2634 7.786 11.2634C9.70667 11.2634 11.2637 9.70641 11.2637 7.78574C11.2637 5.86507 9.70667 4.30806 7.786 4.30806ZM5.40653 7.78574C5.40653 6.4716 6.47185 5.40627 7.786 5.40627C9.10014 5.40627 10.1655 6.4716 10.1655 7.78574C10.1655 9.09988 9.10014 10.1652 7.786 10.1652C6.47185 10.1652 5.40653 9.09988 5.40653 7.78574Z" fill="#262323"/>
<path fill-rule="evenodd" clip-rule="evenodd" d="M11.6358 1.0742C9.09776 0.790535 6.47425 0.790535 3.93622 1.0742C2.46311 1.23884 1.27386 2.39929 1.10067 3.88007C0.797172 6.47501 0.797172 9.09647 1.10067 11.6914C1.27386 13.1722 2.46311 14.3326 3.93622 14.4973C6.47425 14.7809 9.09776 14.7809 11.6358 14.4973C13.1089 14.3326 14.2981 13.1722 14.4713 11.6914C14.7748 9.09647 14.7748 6.47501 14.4713 3.88007C14.2981 2.39929 13.1089 1.23884 11.6358 1.0742ZM4.0582 2.16562C6.51516 1.89101 9.05685 1.89101 11.5138 2.16562C12.4876 2.27446 13.2677 3.04292 13.3806 4.00765C13.6741 6.51782 13.6741 9.05366 13.3806 11.5638C13.2677 12.5286 12.4876 13.297 11.5138 13.4059C9.05685 13.6805 6.51516 13.6805 4.0582 13.4059C3.08437 13.297 2.30429 12.5286 2.19145 11.5638C1.89786 9.05366 1.89786 6.51782 2.19145 4.00765C2.30429 3.04292 3.08437 2.27446 4.0582 2.16562Z" fill="#262323"/>
</svg>
