<svg width="16" height="12" viewBox="0 0 16 12" fill="none" xmlns="http://www.w3.org/2000/svg">
<path fill-rule="evenodd" clip-rule="evenodd" d="M7.03143 3.11885C6.8618 3.01706 6.65053 3.0144 6.47838 3.11187C6.30623 3.20934 6.19981 3.39187 6.19981 3.5897V7.98256C6.19981 8.18039 6.30623 8.36292 6.47838 8.46039C6.65053 8.55786 6.8618 8.5552 7.03143 8.45341L10.6921 6.25698C10.8575 6.15775 10.9587 5.97901 10.9587 5.78613C10.9587 5.59325 10.8575 5.41451 10.6921 5.31527L7.03143 3.11885ZM9.34236 5.78613L7.29803 7.01273V4.55953L9.34236 5.78613Z" fill="#262323"/>
<path fill-rule="evenodd" clip-rule="evenodd" d="M11.8964 0.398495C9.44469 0.206687 6.98177 0.206686 4.53008 0.398495L2.88956 0.526841C1.89197 0.604888 1.07586 1.35256 0.910955 2.33952C0.529682 4.62144 0.529682 6.95082 0.910955 9.23274C1.07586 10.2197 1.89197 10.9674 2.88956 11.0454L4.53008 11.1738C6.98176 11.3656 9.44469 11.3656 11.8964 11.1738L13.5369 11.0454C14.5345 10.9674 15.3506 10.2197 15.5155 9.23274C15.8968 6.95082 15.8968 4.62144 15.5155 2.33952C15.3506 1.35256 14.5345 0.604888 13.5369 0.526841L11.8964 0.398495ZM4.61573 1.49336C7.01041 1.30602 9.41605 1.30602 11.8107 1.49336L13.4512 1.62171C13.9459 1.66041 14.3505 2.03113 14.4323 2.5205C14.7936 4.6826 14.7936 6.88966 14.4323 9.05175C14.3505 9.54113 13.9459 9.91185 13.4512 9.95055L11.8107 10.0789C9.41605 10.2662 7.0104 10.2662 4.61573 10.0789L2.97522 9.95055C2.48058 9.91185 2.07592 9.54113 1.99415 9.05175C1.6329 6.88966 1.6329 4.6826 1.99415 2.5205C2.07592 2.03113 2.48058 1.66041 2.97522 1.62171L4.61573 1.49336Z" fill="#262323"/>
</svg>
