<svg width="36" height="47" viewBox="0 0 36 47" fill="none" xmlns="http://www.w3.org/2000/svg">
<path d="M4.13428 0.541916C3.16011 0.84166 2.83539 1.21634 1.4116 3.68924C0.0752321 5.98729 0.0502534 6.04973 0.0127852 6.92399C-0.0246829 7.63588 0.0127852 7.91065 0.225105 8.31031C0.624765 9.09714 1.36164 9.65916 2.33581 9.90895C3.12264 10.0963 4.74626 10.7832 5.32077 11.1579L5.59554 11.3452L5.14592 11.9947C4.52145 12.9189 3.50981 15.0671 3.38492 15.729C3.33496 16.0287 3.33496 16.5033 3.39741 16.7781C3.53479 17.465 3.53479 17.4775 3.37243 19.0637C3.03521 22.1485 3.79707 25.4208 5.49562 28.1559C6.41984 29.6671 8.31822 31.578 9.84193 32.5647C10.4914 32.9768 11.0784 33.339 11.1533 33.364C11.2158 33.389 11.1658 33.5763 11.0159 33.7762C9.84193 35.4372 9.24244 38.3223 9.82944 39.4463C9.96682 39.6836 10.2416 39.9959 10.4539 40.1332C10.7287 40.3081 10.8411 40.4829 10.8536 40.7327C10.8536 41.5196 11.6029 42.4438 12.3898 42.6311C12.6895 42.7061 12.727 42.781 12.727 43.2181C12.727 44.567 13.6137 45.7535 14.8876 46.1281C15.7494 46.3779 16.4113 46.303 17.2232 45.8534L17.7977 45.5536L18.4096 45.9033C19.209 46.3405 20.383 46.3779 21.1698 45.9658C22.1939 45.4412 22.8434 44.3671 22.8434 43.2181C22.8434 42.781 22.8808 42.7061 23.1806 42.6311C23.9674 42.4438 24.7168 41.5196 24.7168 40.7327C24.7293 40.4829 24.8417 40.3081 25.1164 40.1332C25.3288 39.9959 25.6035 39.6836 25.7409 39.4463C26.3279 38.3223 25.7284 35.4372 24.5544 33.7762C24.3796 33.5389 24.3421 33.389 24.4295 33.364C24.8167 33.2266 26.0906 32.3149 26.2155 32.0776C26.3779 31.7654 26.2904 31.2408 26.0032 30.9161C25.666 30.5539 25.0165 30.6538 23.9799 31.2408C21.9192 32.4273 20.1831 32.8769 17.7227 32.8769C15.8493 32.8769 14.5629 32.6146 12.9643 31.9402C8.38067 29.9919 5.37073 25.5457 5.32077 20.6498C5.30828 19.8255 5.34575 18.9513 5.39571 18.7015L5.48313 18.2519L8.89273 18.1769C12.4522 18.1145 13.5638 17.9896 15.5371 17.4151C18.0849 16.6782 19.9958 15.6915 22.1939 13.993L23.2305 13.1937L25.3163 15.2419C27.5144 17.4026 28.1389 17.8397 29.3753 18.077C29.7 18.1395 29.9998 18.2144 30.0497 18.2519C30.0872 18.2893 30.1621 18.7889 30.2371 19.3634C30.5493 22.1236 29.5627 25.5207 27.7767 27.8937C27.4644 28.3058 27.1772 28.7679 27.1397 28.9178C26.9399 29.7046 27.6143 30.3416 28.3887 30.0793C29.0506 29.867 30.5368 27.6564 31.2612 25.7954C32.098 23.6722 32.4477 21.2118 32.1979 19.0762C32.0231 17.5525 32.0231 17.4525 32.1854 16.7406C32.2604 16.4034 32.2604 16.0038 32.1854 15.679C32.0356 14.9796 30.949 12.7066 30.3994 11.9572L29.9623 11.3452L30.2496 11.1704C30.7991 10.8082 32.4102 10.1213 33.2345 9.90895C34.2087 9.64667 34.9581 9.09714 35.3452 8.31031C35.5576 7.91065 35.595 7.63588 35.5576 6.92399C35.5201 6.04973 35.4951 5.98729 34.1587 3.68924C32.6725 1.10394 32.3478 0.754234 31.2113 0.479469C30.387 0.27964 29.6126 0.46698 28.6759 1.09145C26.9649 2.21549 25.3912 3.964 24.4795 5.7375L24.0424 6.5618L22.8933 6.14965C21.1323 5.51269 19.8085 5.30037 17.7227 5.31286C15.6994 5.31286 14.2881 5.56264 12.5271 6.1996L11.5155 6.5618L11.1408 5.79995C10.0542 3.60181 7.43148 1.029 5.7579 0.529427C5.07098 0.317108 4.83369 0.317108 4.13428 0.541916ZM5.8703 2.86494C6.95688 3.56435 8.29324 4.97565 9.00514 6.17463C9.84193 7.58593 9.84193 7.48601 9.01763 8.03554C8.61797 8.29782 7.9935 8.79739 7.63131 9.13461L6.96937 9.77157L6.50726 9.48431C5.62052 8.94727 4.27166 8.36027 3.35994 8.11048C2.32332 7.82322 1.98611 7.57344 1.98611 7.09884C1.98611 6.64922 4.30913 2.61515 4.65883 2.47777C5.03352 2.31541 4.99605 2.30292 5.8703 2.86494ZM31.1613 2.65262C31.536 3.0273 33.5842 6.78661 33.5842 7.08635C33.5842 7.57344 33.2595 7.81073 32.2479 8.09799C31.3486 8.34778 29.9124 8.97225 29.0506 9.48431L28.5885 9.77157L28.1139 9.32195C27.6018 8.83486 26.9774 8.47267 26.6277 8.47267C26.5028 8.47267 26.2655 8.26035 26.1031 8.01056C25.8158 7.57344 25.8158 7.54846 26.0282 7.12382C26.7775 5.55016 28.3137 3.76418 29.7 2.86494C30.5119 2.35287 30.8241 2.30292 31.1613 2.65262ZM20.87 7.64837C23.0432 8.19791 24.5919 8.98474 24.5919 9.55925C24.6044 10.0089 24.9416 10.2587 25.666 10.3586C26.2904 10.446 26.4528 10.5334 27.0023 11.058C27.3395 11.3827 27.9515 12.0946 28.3512 12.6316C29.2754 13.8681 30.4744 16.2161 30.1746 16.2161C30.1497 16.2161 29.8249 16.1287 29.4503 16.0163C28.8383 15.8289 28.576 15.6041 26.1905 13.2561C23.1181 10.2087 23.318 10.2836 21.8068 11.6575C19.5212 13.7557 16.3114 15.3293 13.1641 15.9163C11.7028 16.1911 5.35824 16.3285 5.35824 16.0912C5.35824 15.779 6.35739 13.8181 6.98186 12.9189C7.73122 11.8323 9.34235 10.2462 10.4164 9.53427C12.1025 8.42271 14.2257 7.6109 16.1616 7.36112C17.4729 7.17377 19.5212 7.31116 20.87 7.64837ZM16.3989 34.8502C17.9475 35.0126 19.9084 34.8627 21.4446 34.4631L22.3438 34.2258L22.6685 34.6129C23.3554 35.4372 23.9674 37.0733 23.9674 38.1225V38.6345L23.5178 37.9476C22.7934 36.861 22.6061 36.6987 22.0815 36.6987C21.7193 36.6987 21.557 36.7736 21.3571 37.0234C20.9325 37.5604 21.0324 37.9101 21.9067 39.2215C22.3563 39.8959 22.7185 40.4954 22.7185 40.5704C22.7185 40.6578 21.0574 40.6953 17.7852 40.6953C14.513 40.6953 12.8519 40.6578 12.8519 40.5704C12.8519 40.4954 13.2141 39.8959 13.6637 39.2215C14.5379 37.9101 14.6378 37.5604 14.2132 37.0234C13.9884 36.7361 13.8635 36.6862 13.4264 36.7236C12.9518 36.7611 12.8644 36.8236 12.2898 37.6104C11.7278 38.3847 11.6654 38.4347 11.6279 38.1349C11.528 37.3231 12.14 35.5996 12.8519 34.7004L13.2265 34.2258L14.1383 34.4631C14.6254 34.588 15.6495 34.7628 16.3989 34.8502ZM16.7985 43.1557C16.6861 43.7926 16.0741 44.3671 15.612 44.2547C15.1249 44.1423 14.7253 43.6303 14.7253 43.1182V42.6936H15.7994H16.8734L16.7985 43.1557ZM20.8451 43.1182C20.8451 43.6303 20.4454 44.1423 19.9583 44.2547C19.4338 44.3796 18.8468 43.8051 18.8468 43.1807V42.6936H19.8459H20.8451V43.1182Z" fill="#C0304F"/>
<path d="M11.7404 21.4117C11.5281 21.674 11.4781 21.9238 11.4781 22.6107C11.4781 23.3601 11.5156 23.51 11.7904 23.7722C11.9777 23.9721 12.24 24.0845 12.4773 24.0845C12.7146 24.0845 12.9769 23.9721 13.1642 23.7722C13.439 23.51 13.4764 23.3601 13.4764 22.6107C13.4764 21.4992 13.2017 21.087 12.4773 21.087C12.1026 21.087 11.9403 21.162 11.7404 21.4117Z" fill="#C0304F"/>
<path d="M22.469 21.3368C22.2566 21.5491 22.2192 21.7489 22.2192 22.5732C22.2192 23.4974 22.2442 23.5848 22.5439 23.8221C22.9186 24.1219 23.1933 24.1469 23.643 23.947C24.0801 23.7472 24.2549 23.2227 24.1925 22.3234C24.1425 21.7114 24.0801 21.4991 23.8553 21.3243C23.4681 21.012 22.7812 21.0245 22.469 21.3368Z" fill="#C0304F"/>
<path d="M15.7246 22.3359C15.3374 22.7231 15.3874 23.46 15.8245 23.8597C16.424 24.4217 16.9735 24.634 17.8478 24.6465C19.1342 24.6465 20.2207 23.8971 20.2207 23.0229C20.2207 22.2235 19.0717 21.7489 18.5472 22.3235C18.1725 22.7356 17.7479 22.7606 17.2358 22.4109C16.6738 22.0237 16.0743 21.9862 15.7246 22.3359Z" fill="#C0304F"/>
</svg>
