<svg width="40" height="54" viewBox="0 0 40 54" fill="none" xmlns="http://www.w3.org/2000/svg">
<path d="M17.7485 0.642487C11.2861 1.86901 6.90563 8.03254 7.87448 14.5156C8.11154 16.041 8.6475 17.6077 9.36898 18.8239C9.5442 19.1228 9.68849 19.3908 9.68849 19.4114C9.68849 19.4423 7.66834 19.4629 5.20499 19.4629C2.14384 19.4629 0.649335 19.5041 0.484425 19.5763C0.340128 19.6381 0.175217 19.803 0.113376 19.9473C0.0412276 20.1122 0 21.4418 0 24.0598V27.9249L0.257673 28.1722C0.484425 28.4093 0.587494 28.4299 1.48419 28.4299H2.46335L2.49427 30.8108C2.52519 33.1711 2.52519 33.1917 2.77256 33.3875C3.09207 33.6452 3.64865 33.6452 3.91663 33.3772C4.11246 33.1814 4.12276 33.0371 4.12276 30.8005V28.4299H19.9954H35.868V30.8005C35.868 33.0371 35.8784 33.1814 36.0742 33.3772C36.3422 33.6452 36.8987 33.6452 37.2183 33.3875C37.4656 33.1917 37.4656 33.1711 37.4965 30.8108L37.5275 28.4299H38.5066C39.4033 28.4299 39.5064 28.4093 39.7331 28.1722L39.9908 27.9249V24.0598C39.9908 21.4418 39.9496 20.1122 39.8774 19.9473C39.8156 19.803 39.6507 19.6381 39.5064 19.5763C39.3415 19.5041 37.847 19.4629 34.7858 19.4629C32.3225 19.4629 30.3023 19.4423 30.3023 19.4217C30.3023 19.3908 30.4672 19.0919 30.6631 18.7517C32.8893 14.9588 32.7347 9.80533 30.2714 6.0227C29.0758 4.19837 27.3236 2.66264 25.3138 1.68349C23.5513 0.828011 22.5 0.580647 20.3046 0.539417C19.0575 0.518803 18.2638 0.549725 17.7485 0.642487ZM22.0053 2.31221C23.8811 2.67295 25.7054 3.60057 27.1278 4.91986C28.1482 5.86809 28.8078 6.73387 29.4056 7.89855C30.2714 9.59919 30.56 10.8257 30.5497 12.815C30.5394 14.0209 30.4878 14.4228 30.2611 15.2886C29.9622 16.443 29.1789 18.1127 28.5811 18.896L28.1791 19.4114L26.664 19.4423L25.1489 19.4732L25.9013 18.7208C27.6741 16.9583 28.5398 14.732 28.4058 12.2996C28.2719 9.68165 27.1175 7.50689 25.0561 5.94024C23.5925 4.8374 21.9743 4.31175 19.9954 4.31175C18.0165 4.31175 16.3983 4.8374 14.9347 5.94024C12.8733 7.50689 11.719 9.68165 11.585 12.2996C11.451 14.732 12.3168 16.9583 14.0895 18.7208L14.8419 19.4732L13.3268 19.4423L11.8117 19.4114L11.4097 18.896C10.8119 18.1127 10.0286 16.443 9.72972 15.2886C9.50297 14.4228 9.45144 14.0209 9.44113 12.815C9.43082 10.9082 9.70911 9.63011 10.4924 8.07377C11.0387 6.97093 11.5128 6.30098 12.4198 5.36305C14.8935 2.77602 18.4597 1.64226 22.0053 2.31221ZM21.593 6.12576C23.809 6.65142 25.7157 8.42421 26.4475 10.6608C26.7052 11.4647 26.7464 11.7224 26.7361 12.7634C26.7361 13.7838 26.6949 14.0621 26.4475 14.7733C26.0662 15.8761 25.5508 16.7007 24.7366 17.5046C23.9533 18.2776 23.2112 18.7414 22.1392 19.1331C21.459 19.3805 21.2425 19.4114 19.9954 19.4114C18.7483 19.4114 18.5318 19.3805 17.8516 19.1331C16.7796 18.7414 16.0376 18.2776 15.2542 17.4943C14.4606 16.7213 13.9143 15.8349 13.5227 14.732C13.2856 14.0518 13.2547 13.7838 13.2547 12.7119C13.2547 11.6503 13.2959 11.3617 13.5433 10.6299C14.1102 8.89832 15.3985 7.42443 17.0579 6.6308C18.5834 5.8887 19.9645 5.74441 21.593 6.12576ZM38.3417 23.9464V26.7808H19.9954H1.64911V23.9464V21.112H19.9954H38.3417V23.9464Z" fill="#C0304F"/>
<path d="M19.4697 7.39351C19.2842 7.54812 19.2121 7.72333 19.1708 8.17684C19.1193 8.75402 19.109 8.76433 18.7173 8.89832C17.7485 9.22814 17.2125 9.94963 17.1404 10.9803C17.0992 11.609 17.1198 11.743 17.3878 12.2378C17.563 12.5676 17.8516 12.918 18.1195 13.1138C18.5318 13.4024 18.6452 13.4334 19.614 13.4849C20.1912 13.5158 20.7684 13.5983 20.8921 13.6704C21.3765 13.9384 21.2838 14.732 20.7581 14.9279C20.6138 14.9897 19.8408 15.0309 19.0266 15.0309C17.6248 15.0309 17.5424 15.0412 17.3362 15.268C17.0579 15.5669 17.0476 16.0616 17.3053 16.3811C17.4805 16.5976 17.6145 16.6285 18.336 16.6594L19.1708 16.7007V17.216C19.1708 17.8344 19.4904 18.2261 19.9954 18.2261C20.5211 18.2261 20.82 17.8344 20.82 17.1438C20.82 16.6182 20.8406 16.577 21.057 16.577C21.3765 16.577 22.1805 16.0616 22.4381 15.6906C22.9432 14.9588 23.0153 14.0415 22.634 13.2066C22.1908 12.2584 21.325 11.8358 19.8408 11.8358C19.3048 11.8358 19.1296 11.7946 18.9647 11.6297C18.6864 11.3514 18.707 10.9494 19.0162 10.6505C19.2533 10.4031 19.3048 10.3928 20.8509 10.3928C22.3763 10.3928 22.4381 10.3825 22.6546 10.1558C22.9638 9.82594 22.9535 9.3209 22.6237 9.00139C22.4072 8.77464 22.2835 8.74372 21.593 8.74372H20.82V8.22837C20.82 7.80579 20.7684 7.65119 20.5623 7.45535C20.2634 7.14615 19.7996 7.11523 19.4697 7.39351Z" fill="#C0304F"/>
<path d="M14.3782 33.1608C11.8839 33.8823 10.3894 36.459 10.9666 39.0666C11.2655 40.4168 11.5232 40.726 15.7593 44.9622C19.3564 48.5593 19.6656 48.8376 19.9955 48.8376C20.3253 48.8376 20.6345 48.5593 24.2007 44.9931C26.3136 42.8905 28.1791 40.9528 28.344 40.7054C29.3335 39.2212 29.4263 37.0877 28.5708 35.5004C28.2101 34.8511 27.2824 33.9235 26.6228 33.5627C25.2004 32.7794 23.3452 32.7691 21.8507 33.5318C21.5724 33.6761 21.0364 34.0781 20.6654 34.4182L19.9955 35.0572L19.3461 34.4388C18.3051 33.4391 17.1198 32.9546 15.7181 32.9753C15.3264 32.9753 14.7183 33.0577 14.3782 33.1608ZM16.9755 34.8305C17.4393 35.016 17.7692 35.2634 18.5834 36.0467C19.9748 37.3969 20.0161 37.3969 21.4075 36.0467C22.6546 34.8305 23.2215 34.5625 24.3759 34.6347C25.6024 34.7171 26.5919 35.3768 27.1794 36.5002C27.4267 36.964 27.468 37.1599 27.468 37.9123C27.468 39.3552 27.4473 39.3861 23.4483 43.3749L19.9955 46.8277L16.5014 43.3234C12.5436 39.3449 12.5332 39.3243 12.5229 37.9638C12.5229 37.2835 12.5745 37.0362 12.7909 36.5724C13.2032 35.6963 14.0278 34.9954 14.9451 34.7068C15.4604 34.5522 16.3674 34.614 16.9755 34.8305Z" fill="#C0304F"/>
<path d="M2.72104 35.8612C2.53551 36.0674 2.52521 36.3663 2.52521 44.4572C2.52521 52.5481 2.53551 52.847 2.72104 53.0531L2.91687 53.2696H19.9954H37.074L37.2698 53.0531C37.4553 52.847 37.4656 52.5481 37.4656 44.4572C37.4656 36.3663 37.4553 36.0674 37.2698 35.8612C37.0018 35.5726 36.3628 35.5623 36.0742 35.8509C35.8681 36.0571 35.8681 36.191 35.8681 43.8903V51.7236H19.9954H4.12278V43.8903C4.12278 36.191 4.12278 36.0571 3.91664 35.8509C3.62805 35.5623 2.98902 35.5726 2.72104 35.8612Z" fill="#C0304F"/>
</svg>
