<svg width="47" height="47" viewBox="0 0 47 47" fill="none" xmlns="http://www.w3.org/2000/svg">
<path d="M14.9241 0.424965C14.0888 0.533918 12.9085 0.906179 12.1095 1.2966C7.96012 3.3758 6.20778 8.52388 8.20527 12.7459C8.43226 13.218 8.79544 13.8536 9.01335 14.1623C9.23125 14.4619 12.1912 17.4763 15.5778 20.8538C22.4601 27.718 22.0061 27.3457 23.3226 27.3275C24.3395 27.3185 24.6392 27.1278 26.4369 25.321C27.9441 23.7865 27.9532 23.7774 27.9532 23.3779C27.9532 22.924 27.7534 22.6244 27.3358 22.47C26.8455 22.2793 26.6094 22.4428 25.0296 24.0044C23.5133 25.4935 23.5042 25.5026 23.1683 25.4481C22.8687 25.3936 22.1968 24.758 16.8944 19.4647C13.6348 16.2051 10.7838 13.2815 10.5569 12.9728C9.70339 11.8016 9.31297 10.5577 9.31297 9.04141C9.31297 7.88832 9.48548 7.10748 9.98485 6.09057C11.5556 2.86735 15.3599 1.41463 18.6467 2.78564C19.6 3.17605 20.2175 3.63911 21.5521 4.95564C22.7506 6.13597 23.0049 6.2994 23.477 6.18137C23.6313 6.14505 24.2124 5.64568 24.9116 4.95564C25.5562 4.32007 26.328 3.63003 26.6185 3.43028C27.3721 2.90367 28.3436 2.53141 29.3787 2.34982C31.467 1.99572 33.6188 2.713 35.1714 4.27468C37.4867 6.58087 37.8317 10.131 36.0067 12.8548C35.8614 13.0818 34.8808 14.1259 33.8276 15.1792C32.0117 17.0132 31.93 17.1222 31.8846 17.5035C31.8392 17.8667 31.8665 17.9484 32.1116 18.2208C32.3477 18.4841 32.4475 18.5295 32.8016 18.5295H33.2193L35.1351 16.6228C37.2506 14.5164 37.6683 13.9988 38.2493 12.7549C40.6009 7.77028 37.7954 1.89585 32.4385 0.588396C31.3035 0.306932 29.5058 0.306932 28.3799 0.579317C26.6911 0.996973 25.4836 1.68702 24.1216 3.03078L23.2409 3.89334L22.2513 2.94907C20.8893 1.64162 19.6273 0.933418 18.0111 0.570238C17.1849 0.379568 15.7322 0.316011 14.9241 0.424965Z" fill="#C0304F"/>
<path d="M2.25843 16.1778C0.86927 16.5591 0.0793531 17.5125 0.0067171 18.8926C-0.0296009 19.5826 0.0339556 19.8822 1.4322 25.5206C2.24027 28.762 3.00295 31.7491 3.13007 32.1486C3.88367 34.4639 5.63601 37.0697 7.5881 38.7948C7.97852 39.1399 9.36769 40.184 10.6842 41.1192L13.063 42.8261V43.8703C13.063 44.7328 13.0903 44.978 13.2446 45.2685C13.4625 45.6953 13.8893 46.0312 14.3796 46.1674C14.888 46.3036 31.5762 46.3036 32.0846 46.1674C32.5749 46.0312 33.0016 45.6953 33.2195 45.2685C33.3739 44.978 33.4011 44.7328 33.4011 43.8703V42.8261L35.789 41.1192C37.0965 40.184 38.4857 39.1399 38.8761 38.7948C40.8282 37.0697 42.5805 34.4639 43.3341 32.1486C43.4612 31.7491 44.2239 28.762 45.032 25.5206C46.4211 19.8913 46.4938 19.5826 46.4575 18.8926C46.4302 18.3024 46.3667 18.0663 46.1578 17.6759C45.268 16.0507 43.0708 15.5785 41.609 16.6953C40.8554 17.2764 40.6829 17.6214 39.212 21.5528L37.8319 25.2664L37.3598 25.0939C36.7424 24.8487 35.6165 24.9032 35.0718 25.1847C34.4907 25.4843 27.3451 30.0785 26.7277 30.5506C25.4929 31.4949 24.3216 32.8841 23.6316 34.2188C23.4409 34.6092 23.2593 34.9179 23.2321 34.9179C23.2048 34.9179 23.0233 34.6092 22.8326 34.2188C22.1516 32.9022 20.9531 31.4767 19.7365 30.5506C19.1009 30.0694 12.0098 25.5024 11.4197 25.1937C10.8476 24.8941 9.73087 24.8487 9.10438 25.0939L8.63225 25.2664L7.25216 21.5528C5.79036 17.6305 5.61785 17.2764 4.85517 16.6953C4.12881 16.1415 3.12099 15.9326 2.25843 16.1778ZM3.61128 18.2025C3.73839 18.2842 3.9109 18.4567 4.0017 18.5839C4.30132 18.9833 7.1886 26.8553 7.15229 27.1549C7.05241 27.9357 7.13413 28.7075 7.37019 29.1978C7.49731 29.4702 7.6789 29.7789 7.76969 29.8788C7.86049 29.9786 9.03174 30.932 10.3755 31.9943C12.6181 33.7648 12.8361 33.9191 13.172 33.9191C13.626 33.9191 13.8439 33.8011 14.0164 33.4652C14.1889 33.1292 14.1889 32.7388 14.0164 32.4937C13.9438 32.3938 12.8361 31.4767 11.5558 30.4689C9.00451 28.4533 8.86831 28.2898 9.05898 27.6543C9.20425 27.164 9.53112 26.9098 10.0396 26.8644C10.4754 26.828 10.4754 26.828 14.3796 29.334C16.5314 30.7231 18.4653 31.9943 18.6923 32.1759C20.2449 33.4288 21.398 35.2084 21.9791 37.2604C22.1607 37.905 22.1789 38.2137 22.2061 41.1555L22.2424 44.3606H18.6197H14.9879L14.9516 43.1439C14.9243 42.0816 14.8971 41.9 14.7428 41.7275C14.6429 41.6186 13.3536 40.6652 11.8827 39.6029C9.81258 38.1229 9.00451 37.4783 8.2963 36.7792C6.87082 35.3537 5.69049 33.5378 5.064 31.8308C4.72806 30.8957 1.89525 19.4918 1.89525 19.056C1.89525 18.6383 2.13132 18.3115 2.57622 18.1117C2.97571 17.921 3.26626 17.9483 3.61128 18.2025ZM43.9061 18.1117C44.3238 18.3024 44.5689 18.6746 44.5689 19.1014C44.5689 19.51 41.718 30.9501 41.4002 31.8308C40.7737 33.5378 39.5934 35.3537 38.1679 36.7792C37.4597 37.4783 36.6516 38.1229 34.5815 39.6029C33.1106 40.6652 31.8213 41.6186 31.7214 41.7275C31.5671 41.9 31.5398 42.0816 31.5126 43.1439L31.4763 44.3606H27.8445H24.2218L24.2581 41.1555C24.2853 38.2137 24.3035 37.905 24.4851 37.2604C25.0661 35.2084 26.2192 33.4288 27.7718 32.1759C27.9988 31.9943 29.9418 30.7231 32.0846 29.3431C36.352 26.6101 36.3247 26.6192 36.9512 27.0459C37.1419 27.1731 37.3053 27.391 37.387 27.6089C37.614 28.2808 37.5051 28.417 34.9083 30.4689C33.6281 31.4767 32.5204 32.3938 32.4478 32.4937C32.2753 32.7388 32.2753 33.1292 32.4478 33.4652C32.6203 33.8011 32.8382 33.9191 33.2922 33.9191C33.6281 33.9191 33.846 33.7648 36.0887 31.9943C37.4324 30.932 38.6037 29.9786 38.6945 29.8788C38.7853 29.7789 38.9669 29.4702 39.1031 29.1978C39.3391 28.7075 39.4118 27.9721 39.3119 27.1549C39.2846 26.9642 39.7205 25.6931 40.7555 22.9329C41.5636 20.7629 42.2809 18.8835 42.3444 18.7564C42.4988 18.4658 42.8257 18.1571 43.1162 18.0391C43.434 17.912 43.4703 17.921 43.9061 18.1117Z" fill="#C0304F"/>
<path d="M29.4334 19.6825C29.2246 19.7823 28.9522 20.2635 28.9522 20.5269C28.9522 20.7902 29.2246 21.1987 29.497 21.344C29.8329 21.5165 29.9873 21.5165 30.3595 21.344C31.213 20.9354 30.9225 19.5644 29.9782 19.5826C29.7875 19.5826 29.5424 19.628 29.4334 19.6825Z" fill="#C0304F"/>
</svg>
